<?xml version="1.0" encoding="UTF-8" standalone="no"?> <svg id="Layer_1" data-name="Layer 1" xmlns="http://www.w3.org/2000/svg" viewBox="0 0 128 128"><defs><style>.cls-1{fill:#1d75b8;}.cls-2{fill:#2d3e50;}</style></defs><title>n</title><path class="cls-1" d="M44.20781,69.18145c-2.73045,1.13354-5.24909,2.58479-6.26347,5.61722-.20458.61373-1.089,5.44643-1.49576,7.69424a.96785.96785,0,0,0,.95426,1.142H81.20247a.95742.95742,0,0,0,.48258-.12873.968.968,0,0,0,.47048-1.0133c-.40554-2.24781-1.29119-7.08051-1.49582-7.69424-1.01318-3.03243-3.53182-4.48368-6.26221-5.61722-.349-.1444-.70156-.284-1.05414-.4212q-3.57032-1.38441-7.13949-2.76888a7.49637,7.49637,0,0,1-13.80242,0q-3.5704,1.38441-7.13955,2.76888C44.90937,68.89748,44.55678,69.03705,44.20781,69.18145Z"/><path class="cls-1" d="M59.30176,63.43768a8.79884,8.79884,0,0,0,8.63382-7.1162l1.34311-6.92092a9.26574,9.26574,0,0,0-9.17951-10.514h-1.5949a9.26475,9.26475,0,0,0-9.1787,10.514l1.34271,6.92092A8.79912,8.79912,0,0,0,59.30176,63.43768Z"/><path class="cls-1" d="M105.06431,7.54577A20.838,20.838,0,0,0,84.51807,25.07863c-.16918,1.06625-5.30112,28.3368-5.30112,28.3368L94.4806,46.26229A20.80456,20.80456,0,1,0,105.06431,7.54577Z"/><path class="cls-2" d="M107.30018,88.36525H11.30587V28.89637c0-.5734.31019-1.01513.59216-1.01513h67.806c.36653-1.95506.60151-3.24275.63914-3.47773a24.62307,24.62307,0,0,1,1.77641-6.02488H9.86776a7.742,7.742,0,0,0-7.73555,7.73555V94.38078a7.74,7.74,0,0,0,7.73555,7.72614H42.3703L36.54277,116.9765a2.541,2.541,0,0,0,.26321,2.35922,2.56994,2.56994,0,0,0,2.10542,1.11851H79.69466a2.55824,2.55824,0,0,0,2.36857-3.47773l-5.82748-14.86958h32.50249a7.74,7.74,0,0,0,7.7356-7.72614V50.618a24.628,24.628,0,0,1-9.17366,2.65994Z"/></svg>